<svg width="18" height="23" viewBox="0 0 18 23" fill="none" xmlns="http://www.w3.org/2000/svg">
<path d="M12.1 7C12.1 7.79105 11.9714 8.32087 11.7985 8.68311C11.6266 9.04294 11.4072 9.24549 11.2097 9.37712C10.6948 9.72044 9.92317 9.85 9 9.85C8.07683 9.85 7.30523 9.72044 6.79026 9.37712C6.59282 9.24549 6.37337 9.04294 6.20155 8.68311C6.02857 8.32087 5.9 7.79105 5.9 7C5.9 5.80089 6.25285 4.73178 6.81069 4.00229C7.34214 3.30732 8.06309 2.9 9 2.9C9.93691 2.9 10.6579 3.30732 11.1893 4.00229C11.7471 4.73178 12.1 5.80089 12.1 7ZM9 11.65C10.007 11.65 11.2323 11.5254 12.2082 10.8748C13.1962 10.2162 13.9 9.03866 13.9 7C13.9 5.47265 13.4548 4.00166 12.6192 2.90888C11.7811 1.81299 10.5512 1.1 9 1.1C7.44879 1.1 6.21888 1.81299 5.38085 2.90888C4.54519 4.00166 4.1 5.47265 4.1 7C4.1 9.03866 4.80383 10.2162 5.79179 10.8748C6.7677 11.5254 7.993 11.65 9 11.65ZM2.4 19.4577C2.4 18.7084 2.7951 17.8313 3.86864 16.5883C4.89513 15.3997 6.5264 14.4 9 14.4C11.4736 14.4 13.1049 15.3997 14.1314 16.5883C15.2049 17.8313 15.6 18.7084 15.6 19.4577V19.65C15.6 19.8985 15.3985 20.1 15.15 20.1H2.85C2.60147 20.1 2.4 19.8985 2.4 19.65V19.4577ZM0.6 19.75C0.6 20.9374 1.56259 21.9 2.75 21.9H15.25C16.4374 21.9 17.4 20.9374 17.4 19.75V19.4577C17.4 18.2106 16.799 16.9232 15.4936 15.4117C14.1452 13.8503 12.0264 12.6 9 12.6C5.97356 12.6 3.85485 13.8503 2.50636 15.4117C1.20104 16.9232 0.6 18.2106 0.6 19.4577V19.75Z" fill="#4C9EEB" stroke="#4C9EEB" stroke-width="0.3"/>
</svg>
